<svg width="94" height="66" viewBox="0 0 94 66" fill="none" xmlns="http://www.w3.org/2000/svg">
<path d="M8.61775 23.152C9.26575 22.096 10.1058 21.268 11.1378 20.668C12.1938 20.068 13.3938 19.768 14.7378 19.768V25.06H13.4058C11.8218 25.06 10.6218 25.432 9.80575 26.176C9.01375 26.92 8.61775 28.216 8.61775 30.064V40H3.57775V20.056H8.61775V23.152ZM36.6724 29.596C36.6724 30.316 36.6244 30.964 36.5284 31.54H21.9484C22.0684 32.98 22.5724 34.108 23.4604 34.924C24.3484 35.74 25.4404 36.148 26.7364 36.148C28.6084 36.148 29.9404 35.344 30.7324 33.736H36.1684C35.5924 35.656 34.4884 37.24 32.8564 38.488C31.2244 39.712 29.2204 40.324 26.8444 40.324C24.9244 40.324 23.1964 39.904 21.6604 39.064C20.1484 38.2 18.9604 36.988 18.0964 35.428C17.2564 33.868 16.8364 32.068 16.8364 30.028C16.8364 27.964 17.2564 26.152 18.0964 24.592C18.9364 23.032 20.1124 21.832 21.6244 20.992C23.1364 20.152 24.8764 19.732 26.8444 19.732C28.7404 19.732 30.4324 20.14 31.9204 20.956C33.4324 21.772 34.5964 22.936 35.4124 24.448C36.2524 25.936 36.6724 27.652 36.6724 29.596ZM31.4524 28.156C31.4284 26.86 30.9604 25.828 30.0484 25.06C29.1364 24.268 28.0204 23.872 26.7004 23.872C25.4524 23.872 24.3964 24.256 23.5324 25.024C22.6924 25.768 22.1764 26.812 21.9844 28.156H31.4524ZM42.9072 17.68C42.0192 17.68 41.2752 17.404 40.6752 16.852C40.0992 16.276 39.8112 15.568 39.8112 14.728C39.8112 13.888 40.0992 13.192 40.6752 12.64C41.2752 12.064 42.0192 11.776 42.9072 11.776C43.7952 11.776 44.5272 12.064 45.1032 12.64C45.7032 13.192 46.0032 13.888 46.0032 14.728C46.0032 15.568 45.7032 16.276 45.1032 16.852C44.5272 17.404 43.7952 17.68 42.9072 17.68ZM45.3912 20.056V40H40.3512V20.056H45.3912ZM61.4227 19.768C63.7987 19.768 65.7187 20.524 67.1827 22.036C68.6467 23.524 69.3787 25.612 69.3787 28.3V40H64.3387V28.984C64.3387 27.4 63.9427 26.188 63.1507 25.348C62.3587 24.484 61.2787 24.052 59.9107 24.052C58.5187 24.052 57.4147 24.484 56.5987 25.348C55.8067 26.188 55.4107 27.4 55.4107 28.984V40H50.3707V20.056H55.4107V22.54C56.0827 21.676 56.9347 21.004 57.9667 20.524C59.0227 20.02 60.1747 19.768 61.4227 19.768ZM92.7115 29.596C92.7115 30.316 92.6635 30.964 92.5675 31.54H77.9875C78.1075 32.98 78.6115 34.108 79.4995 34.924C80.3875 35.74 81.4795 36.148 82.7755 36.148C84.6475 36.148 85.9795 35.344 86.7715 33.736H92.2075C91.6315 35.656 90.5275 37.24 88.8955 38.488C87.2635 39.712 85.2595 40.324 82.8835 40.324C80.9635 40.324 79.2355 39.904 77.6995 39.064C76.1875 38.2 74.9995 36.988 74.1355 35.428C73.2955 33.868 72.8755 32.068 72.8755 30.028C72.8755 27.964 73.2955 26.152 74.1355 24.592C74.9755 23.032 76.1515 21.832 77.6635 20.992C79.1755 20.152 80.9155 19.732 82.8835 19.732C84.7795 19.732 86.4715 20.14 87.9595 20.956C89.4715 21.772 90.6355 22.936 91.4515 24.448C92.2915 25.936 92.7115 27.652 92.7115 29.596ZM87.4915 28.156C87.4675 26.86 86.9995 25.828 86.0875 25.06C85.1755 24.268 84.0595 23.872 82.7395 23.872C81.4915 23.872 80.4355 24.256 79.5715 25.024C78.7315 25.768 78.2155 26.812 78.0235 28.156H87.4915Z" fill="#7E2AD6"/>
<path d="M58.0279 48.032C58.0279 47.024 58.2319 46.142 58.6399 45.386C59.0479 44.618 59.6059 44.024 60.3139 43.604C61.0339 43.184 61.8319 42.974 62.7079 42.974C63.5719 42.974 64.3219 43.16 64.9579 43.532C65.5939 43.904 66.0679 44.372 66.3799 44.936V43.136H68.0359V53H66.3799V51.164C66.0559 51.74 65.5699 52.22 64.9219 52.604C64.2859 52.976 63.5419 53.162 62.6899 53.162C61.8139 53.162 61.0219 52.946 60.3139 52.514C59.6059 52.082 59.0479 51.476 58.6399 50.696C58.2319 49.916 58.0279 49.028 58.0279 48.032ZM66.3799 48.05C66.3799 47.306 66.2299 46.658 65.9299 46.106C65.6299 45.554 65.2219 45.134 64.7059 44.846C64.2019 44.546 63.6439 44.396 63.0319 44.396C62.4199 44.396 61.8619 44.54 61.3579 44.828C60.8539 45.116 60.4519 45.536 60.1519 46.088C59.8519 46.64 59.7019 47.288 59.7019 48.032C59.7019 48.788 59.8519 49.448 60.1519 50.012C60.4519 50.564 60.8539 50.99 61.3579 51.29C61.8619 51.578 62.4199 51.722 63.0319 51.722C63.6439 51.722 64.2019 51.578 64.7059 51.29C65.2219 50.99 65.6299 50.564 65.9299 50.012C66.2299 49.448 66.3799 48.794 66.3799 48.05ZM72.442 44.954C72.766 44.39 73.246 43.922 73.882 43.55C74.53 43.166 75.28 42.974 76.132 42.974C77.008 42.974 77.8 43.184 78.508 43.604C79.228 44.024 79.792 44.618 80.2 45.386C80.608 46.142 80.812 47.024 80.812 48.032C80.812 49.028 80.608 49.916 80.2 50.696C79.792 51.476 79.228 52.082 78.508 52.514C77.8 52.946 77.008 53.162 76.132 53.162C75.292 53.162 74.548 52.976 73.9 52.604C73.264 52.22 72.778 51.746 72.442 51.182V57.68H70.804V43.136H72.442V44.954ZM79.138 48.032C79.138 47.288 78.988 46.64 78.688 46.088C78.388 45.536 77.98 45.116 77.464 44.828C76.96 44.54 76.402 44.396 75.79 44.396C75.19 44.396 74.632 44.546 74.116 44.846C73.612 45.134 73.204 45.56 72.892 46.124C72.592 46.676 72.442 47.318 72.442 48.05C72.442 48.794 72.592 49.448 72.892 50.012C73.204 50.564 73.612 50.99 74.116 51.29C74.632 51.578 75.19 51.722 75.79 51.722C76.402 51.722 76.96 51.578 77.464 51.29C77.98 50.99 78.388 50.564 78.688 50.012C78.988 49.448 79.138 48.788 79.138 48.032ZM84.606 44.954C84.93 44.39 85.41 43.922 86.046 43.55C86.694 43.166 87.444 42.974 88.296 42.974C89.172 42.974 89.964 43.184 90.672 43.604C91.392 44.024 91.956 44.618 92.364 45.386C92.772 46.142 92.976 47.024 92.976 48.032C92.976 49.028 92.772 49.916 92.364 50.696C91.956 51.476 91.392 52.082 90.672 52.514C89.964 52.946 89.172 53.162 88.296 53.162C87.456 53.162 86.712 52.976 86.064 52.604C85.428 52.22 84.942 51.746 84.606 51.182V57.68H82.968V43.136H84.606V44.954ZM91.302 48.032C91.302 47.288 91.152 46.64 90.852 46.088C90.552 45.536 90.144 45.116 89.628 44.828C89.124 44.54 88.566 44.396 87.954 44.396C87.354 44.396 86.796 44.546 86.28 44.846C85.776 45.134 85.368 45.56 85.056 46.124C84.756 46.676 84.606 47.318 84.606 48.05C84.606 48.794 84.756 49.448 85.056 50.012C85.368 50.564 85.776 50.99 86.28 51.29C86.796 51.578 87.354 51.722 87.954 51.722C88.566 51.722 89.124 51.578 89.628 51.29C90.144 50.99 90.552 50.564 90.852 50.012C91.152 49.448 91.302 48.788 91.302 48.032Z" fill="#CB9EFF"/>
</svg>
