<svg width="56" height="50" viewBox="0 0 56 50" fill="none" xmlns="http://www.w3.org/2000/svg">
<path fill-rule="evenodd" clip-rule="evenodd" d="M42.8011 1.11402L55.7074 23.8868C56.0975 24.5759 56.0975 25.4241 55.7074 26.1132L42.8011 48.886C42.4102 49.5754 41.6882 50 40.9063 50H15.0937C14.3118 50 13.5898 49.5754 13.1989 48.886L0.292558 26.1132C-0.0975193 25.4241 -0.0975193 24.5759 0.292558 23.8868L13.1989 1.11402C13.5898 0.424555 14.3118 0 15.0937 0H40.9063C41.6882 0 42.4102 0.424555 42.8011 1.11402ZM16.3571 45.5457H39.6429L51.2871 25L39.6429 4.45434H16.3571L4.71286 25L16.3571 45.5457ZM25.2631 20.7679C25.0734 16.7777 24.9789 13.9559 24.9789 12.3047C24.9789 10.6091 26.485 9.78607 28.144 9.78607C29.6646 9.78607 30.9399 10.6822 30.9399 12.3047C30.9399 13.9559 30.8993 16.7777 30.8181 20.7679C30.7374 24.7594 30.6968 27.5669 30.6968 29.1903C30.6968 30.4457 29.2283 31.0068 28.144 31.0068C26.4123 31.0068 25.5467 30.4018 25.5467 29.1903C25.5467 27.5669 25.4515 24.7594 25.2631 20.7679ZM28.1876 40.2135C29.8308 40.2135 31.1428 38.7254 31.1428 37.0346C31.1428 35.352 29.8372 33.8556 28.1876 33.8556C26.2209 33.8556 24.8572 35.315 24.8572 37.0346C24.8572 38.6984 26.2752 40.2135 28.1876 40.2135Z" fill="white"/>
</svg>
