<svg width="50" height="55" viewBox="0 0 50 55" fill="none" xmlns="http://www.w3.org/2000/svg">
<path fill-rule="evenodd" clip-rule="evenodd" d="M4.85747 23.0463C8.22208 24.3061 12.7118 25 17.5 25C22.2882 25 26.7779 24.3061 30.1425 23.0463C33.2293 21.8902 35 20.3888 35 18.9271V9.00038C34.0136 9.95624 32.5437 10.8143 30.6381 11.5284C27.1176 12.8466 22.4516 13.5728 17.5 13.5728C12.5484 13.5728 7.88241 12.8466 4.36188 11.528C2.45632 10.8143 0.986441 9.95586 0 9V18.9268C0 20.3887 1.77054 21.8902 4.85747 23.0463ZM28.0764 15.5126C29.2793 15.5126 30.2545 16.5217 30.2545 17.7666C30.2545 19.0115 29.2793 20.0207 28.0764 20.0207C26.8736 20.0207 25.8984 19.0115 25.8984 17.7666C25.8996 16.5222 26.874 15.5136 28.0764 15.5122V15.5126ZM11.1558 18.0797C10.7568 18.0233 10.3892 18.3122 10.3346 18.725V18.7246C10.28 19.1376 10.5592 19.5181 10.9582 19.5746C13.1266 19.8758 15.3122 20.0247 17.5 20.0203C19.2474 20.0222 20.9936 19.9285 22.7314 19.7396C23.1286 19.6917 23.4144 19.3217 23.372 18.9102C23.3297 18.4987 22.9751 18.1992 22.5771 18.2389C20.8904 18.4222 19.1955 18.5132 17.4995 18.5115C15.3779 18.5158 13.2585 18.3716 11.1558 18.0797Z" fill="white"/>
<circle cx="28" cy="31" r="1" fill="white"/>
<path d="M4.85819 10.0687C8.22366 11.3141 12.7133 12 17.5 12C22.2867 12 26.7763 11.3141 30.1418 10.0687C33.2292 8.92628 35 7.44335 35 5.99994C35 4.55652 33.2292 3.07372 30.1418 1.93126C26.7763 0.685796 22.2867 0 17.5 0C12.7133 0 8.22366 0.685796 4.85819 1.93126C1.77078 3.07372 0 4.55677 0 5.99994C0 7.4431 1.77078 8.92628 4.85819 10.0687Z" fill="white"/>
<path d="M28 19C28.4044 19 28.7691 18.7564 28.9239 18.3827C29.0786 18.009 28.9931 17.5789 28.7071 17.2929C28.4211 17.0069 27.991 16.9214 27.6173 17.0761C27.2436 17.2309 27 17.5956 27 18C27.0007 18.552 27.448 18.9993 28 19Z" fill="white"/>
<path fill-rule="evenodd" clip-rule="evenodd" d="M4.85747 36.0461C8.22208 37.3056 12.7118 38 17.5 38C20.9524 38 24.2856 37.634 27.1647 36.9423C28.9164 33.9565 31.7295 31.8008 35 30.9383V22C34.0137 22.956 32.544 23.814 30.6387 24.5282C27.119 25.8465 22.453 26.5723 17.5 26.5723C12.547 26.5723 7.88095 25.8465 4.36127 24.5282C2.45596 23.814 0.986319 22.9556 0 22V31.9266C0 33.3884 1.77054 34.8905 4.85747 36.0461ZM28.0764 28.3199C29.2793 28.3199 30.2545 29.3291 30.2545 30.5741C30.2545 31.8191 29.2793 32.8284 28.0764 32.8284C26.8736 32.8284 25.8984 31.8191 25.8984 30.5741C25.8998 29.3297 26.8741 28.3212 28.0764 28.3199ZM11.1558 30.8866C10.7568 30.8302 10.3891 31.1192 10.3346 31.5321C10.3082 31.7305 10.3591 31.9316 10.4761 32.0911C10.5931 32.2506 10.7665 32.3555 10.9582 32.3826C13.1266 32.6838 15.3122 32.8328 17.5 32.8284C19.2474 32.83 20.9936 32.736 22.7314 32.5468C23.1286 32.4989 23.4144 32.1288 23.372 31.7173C23.3297 31.3058 22.9751 31.0063 22.5771 31.0459C20.8904 31.2293 19.1955 31.3203 17.4995 31.3185C15.3779 31.3229 13.2585 31.1786 11.1558 30.8866Z" fill="white"/>
<path fill-rule="evenodd" clip-rule="evenodd" d="M28 50.0435C25.087 50.6697 21.7594 51 18.3153 51C13.304 51 8.60513 50.3099 5.08376 49.0569C1.85302 47.9073 0 46.4141 0 44.9604V35C1.03227 35.9502 2.57037 36.8043 4.56445 37.5135C8.24811 38.8243 13.1315 39.5462 18.3153 39.5462C21.4065 39.5588 24.4918 39.2813 27.5294 38.7173C25.948 42.3705 26.1208 46.5294 28 50.0435ZM11.6755 43.647C11.2579 43.5909 10.8732 43.8783 10.8161 44.289C10.7589 44.6996 11.0511 45.078 11.4687 45.1342C13.7381 45.4337 16.0255 45.5818 18.3153 45.5775C20.1441 45.5792 21.9717 45.4859 23.7905 45.298C24.0617 45.2696 24.2968 45.1011 24.4073 44.856C24.5179 44.6109 24.4871 44.3264 24.3265 44.1097C24.1659 43.893 23.9 43.777 23.6289 43.8054C21.8636 43.9878 20.0898 44.0783 18.3148 44.0766C16.0944 44.0809 13.8762 43.9374 11.6755 43.647Z" fill="white"/>
<path fill-rule="evenodd" clip-rule="evenodd" d="M31.2182 35.3645C33.2818 33.2071 36.0816 31.9966 39 32C45.0751 32 50 37.1487 50 43.5C50 49.8513 45.0751 55 39 55C32.9249 55 28 49.8513 28 43.5C27.9967 40.449 29.1546 37.5219 31.2182 35.3645ZM39.4784 48.693L43.1615 45.1093V45.1099C43.4454 44.8337 43.4614 44.3692 43.1972 44.0724C42.933 43.7756 42.4887 43.7589 42.2049 44.0351L39.7021 46.4697V38.8445C39.7021 38.4391 39.3878 38.1104 39 38.1104C38.6122 38.1104 38.2979 38.4391 38.2979 38.8445V46.4697L35.7951 44.0345C35.6115 43.8559 35.3506 43.7932 35.1108 43.8701C34.871 43.9471 34.6887 44.1519 34.6325 44.4075C34.5763 44.6631 34.6549 44.9306 34.8385 45.1093L38.5216 48.693C38.7912 48.9553 39.2088 48.9553 39.4784 48.693Z" fill="white"/>
</svg>
