<svg width="30" height="30" viewBox="0 0 30 30" fill="none" xmlns="http://www.w3.org/2000/svg">
<circle cx="15" cy="15" r="15" fill="url(#paint0_linear_0_189)"/>
<path d="M20.824 11.5794L20.4637 11.1899C20.3505 11.0674 20.1995 11 20.0384 11C19.8772 11 19.7262 11.0674 19.6129 11.1899L14.55 16.6631L11.3867 13.2434C11.2735 13.1211 11.1224 13.0536 10.9613 13.0536C10.8002 13.0536 10.6493 13.1211 10.536 13.2434L10.1756 13.6328C10.0622 13.7555 10 13.9189 10 14.0929C10 14.267 10.0622 14.4303 10.1756 14.5528L13.7471 18.4136C13.7518 18.4209 13.7568 18.4277 13.7626 18.4338L14.123 18.817C14.2363 18.939 14.3873 19 14.5497 19H14.5516C14.7128 19 14.8639 18.939 14.9769 18.817L15.3374 18.4305C15.3432 18.4243 15.3482 18.4191 15.3511 18.4139L20.8239 12.4981C21.0587 12.2449 21.0587 11.8329 20.824 11.5794Z" fill="white"/>
<defs>
<linearGradient id="paint0_linear_0_189" x1="4.4082" y1="16.3164" x2="19.4082" y2="37.5" gradientUnits="userSpaceOnUse">
<stop stop-color="#AA55DF"/>
<stop offset="1" stop-color="#7B27D5"/>
</linearGradient>
</defs>
</svg>
