<svg width="50" height="50" viewBox="0 0 50 50" fill="none" xmlns="http://www.w3.org/2000/svg">
<path fill-rule="evenodd" clip-rule="evenodd" d="M0 5.55556V44.4444C0 47.5 2.5 50 5.55556 50H44.4444C47.5 50 50 47.5 50 44.4444V5.55556C50 2.5 47.5 0 44.4444 0H5.55556C2.5 0 0 2.5 0 5.55556ZM33.3333 16.6667C33.3333 21.3889 29.7222 25 25 25C20.2778 25 16.6667 21.3889 16.6667 16.6667C16.6667 11.9444 20.2778 8.33333 25 8.33333C29.7222 8.33333 33.3333 11.9444 33.3333 16.6667ZM25 30.2778C19.4444 30.2778 8.33333 33.3333 8.33333 38.8889V41.6667H41.6667V38.8889C41.6667 33.3333 30.5556 30.2778 25 30.2778Z" fill="white"/>
</svg>
