<svg width="50" height="51" viewBox="0 0 50 51" fill="none" xmlns="http://www.w3.org/2000/svg">
<path d="M49.1882 24.3329L42.7829 21L28.7 28.3283C27.5607 28.9212 26.2814 29.2347 25 29.2347C23.7186 29.2347 22.4393 28.9212 21.3 28.3283L7.2171 21L0.811768 24.3329C0.314331 24.5919 0 25.1226 0 25.7034C0 26.2845 0.314331 26.8149 0.811768 27.0739L22.6059 38.4147C23.3554 38.8051 24.1776 39 25 39C25.8221 39 26.6446 38.8051 27.3941 38.4154L49.1882 27.0739C49.6857 26.8149 50 26.2845 50 25.7034C50 25.1226 49.6857 24.5919 49.1882 24.3329Z" fill="#9657DE"/>
<path d="M49.1882 36.3332L42.7829 33L28.7 40.3285C27.5607 40.9214 26.2814 41.2342 25 41.2342C23.7186 41.2342 22.4393 40.9214 21.3 40.3285L7.2171 33L0.811768 36.3332C0.314331 36.5918 0 37.1229 0 37.7033C0 38.2841 0.314331 38.8148 0.811768 39.0741L22.6059 50.4148C23.3554 50.8048 24.1776 51 25 51C25.8221 50.9997 26.6446 50.8048 27.3941 50.4148L49.1882 39.0741C49.6857 38.8148 50 38.2841 50 37.7033C50 37.1225 49.6857 36.5918 49.1882 36.3332Z" fill="#B98FE9"/>
<path d="M0.811768 14.3398L22.6059 25.4278C23.3554 25.8089 24.1776 26 25 26C25.8224 26 26.6446 25.8089 27.3941 25.4278L49.1882 14.3398C49.6857 14.087 50 13.5678 50 13.0003C50 12.4321 49.6857 11.913 49.1882 11.6601L27.3941 0.571798C25.8948 -0.190599 24.1052 -0.190599 22.6059 0.571798L0.811768 11.6601C0.314331 11.913 0 12.4321 0 13.0003C0 13.5678 0.314331 14.087 0.811768 14.3398Z" fill="#7420D3"/>
</svg>
