<svg width="62" height="51" viewBox="0 0 62 51" fill="none" xmlns="http://www.w3.org/2000/svg">
<path fill-rule="evenodd" clip-rule="evenodd" d="M14.6184 0H57.3816C59.8904 0 62 2.04541 62 4.60218V31.0789C62 33.5788 59.9474 35.6811 57.3816 35.6811H53.2763V41.3628C53.2763 42.215 52.5921 42.84 51.7939 42.84C51.3947 42.84 51.0526 42.6695 50.7675 42.3855L44.0965 35.6811H14.6184C12.1096 35.6811 10 33.6357 10 31.0789V4.60218C10 2.10223 12.0526 0 14.6184 0ZM16.8991 18.5223C16.8991 20.8518 18.8377 22.7836 21.1754 22.7836C23.5702 22.7836 25.4518 20.8518 25.4518 18.5223C25.4518 16.1928 23.5132 14.2611 21.1754 14.2611C18.8377 14.2611 16.8991 16.1928 16.8991 18.5223ZM36.1711 22.7836C33.8333 22.7836 31.8947 20.8518 31.8947 18.5223C31.8947 16.1928 33.8333 14.2611 36.1711 14.2611C38.5088 14.2611 40.4474 16.1928 40.4474 18.5223C40.4474 20.8518 38.5088 22.7836 36.1711 22.7836ZM46.8333 18.5223C46.8333 20.8518 48.7719 22.7836 51.1096 22.7836C53.4474 22.7836 55.386 20.8518 55.386 18.5223C55.386 16.1928 53.4474 14.2611 51.1096 14.2611C48.7719 14.2611 46.8333 16.1928 46.8333 18.5223Z" fill="#7420D3"/>
<path d="M7.6641 31.5768V22.4399H3.00991C1.36391 22.4399 0.00171148 23.8191 0.00171148 25.4856V43.0698C-0.0550469 44.8512 1.30715 46.2304 3.00991 46.2304H5.67755V50.023C5.67755 50.5402 6.13162 50.9999 6.64245 50.9999C6.92624 50.9999 7.15327 50.885 7.32355 50.7126L11.6939 46.2878H30.9918C32.6378 46.2878 34 44.9087 34 43.2422V38.8749H14.8724C10.8993 38.8749 7.6641 35.5994 7.6641 31.5768Z" fill="#B98FE9"/>
</svg>
