<svg width="41" height="51" viewBox="0 0 41 51" fill="none" xmlns="http://www.w3.org/2000/svg">
<path d="M27.558 1.7704C24.4809 0.628786 20.3762 0 15.9997 0C11.6231 0 7.51844 0.628786 4.44144 1.7704C1.619 2.81769 0 4.1771 0 5.49983C0 6.82256 1.619 8.18231 4.44178 9.2296C7.51889 10.3713 11.6237 11 16 11C20.3763 11 24.4812 10.3713 27.5583 9.2296C30.3806 8.18231 32 6.82279 32 5.49983C32 4.17687 30.3811 2.81769 27.558 1.7704Z" fill="#7420D3"/>
<path fill-rule="evenodd" clip-rule="evenodd" d="M32 19C31.1111 19.8365 29.7496 20.5873 28.0076 21.2122C24.7896 22.3657 20.5187 23.0008 15.9899 23.0008C11.4611 23.0008 7.19867 22.3657 3.98067 21.2122C2.23867 20.5873 0.888889 19.8365 0 19V27.6858C0 28.965 1.60778 30.2789 4.43022 31.2905C7.50644 32.3931 11.6 32.9998 15.9778 32.9998C18.105 33.0059 20.2296 32.8521 22.3333 32.5399V32.1139C22.3394 31.8704 22.4775 31.6491 22.6947 31.5348L32 26.4919V19ZM20.77 28.229C19.181 28.3944 17.5842 28.4765 15.9864 28.475C13.9862 28.4788 11.9879 28.3485 10.0054 28.085C9.76945 28.0531 9.5686 27.8988 9.47855 27.6804C9.3885 27.462 9.42294 27.2125 9.56889 27.0261C9.71483 26.8396 9.95012 26.7444 10.1861 26.7764C12.1086 27.0318 14.0464 27.1581 15.9861 27.1542C17.5367 27.1557 19.0863 27.0761 20.6284 26.9157C20.8665 26.8884 21.101 26.9898 21.2427 27.1812C21.3844 27.3726 21.4115 27.6246 21.3137 27.8413C21.2159 28.058 21.0082 28.206 20.7697 28.229H20.77ZM23.665 26.5025C23.665 27.5919 24.5566 28.475 25.6563 28.475C26.7556 28.4738 27.6464 27.5913 27.6477 26.5025C27.6477 25.4131 26.7561 24.5299 25.6563 24.5299C24.5566 24.5299 23.665 25.4131 23.665 26.5025Z" fill="#9657DE"/>
<path d="M25.5 26C25.2239 26 25 26.2239 25 26.5C25 26.7761 25.2239 27 25.5 27C25.7761 27 26 26.7761 26 26.5C25.9997 26.224 25.776 26.0003 25.5 26Z" fill="#9657DE"/>
<path d="M25.5 15C25.2239 15 25 15.2239 25 15.5C25 15.7761 25.2239 16 25.5 16C25.7761 16 26 15.7761 26 15.5C25.9997 15.224 25.776 15.0003 25.5 15Z" fill="#7420D3"/>
<path fill-rule="evenodd" clip-rule="evenodd" d="M15.9899 12.001C11.4627 12.001 7.20011 11.3655 3.98122 10.2117C2.239 9.58718 0.888889 8.83607 0 8V16.6861C0 17.9651 1.61367 19.2788 4.43611 20.2904C7.51222 21.3928 11.6122 22 15.9899 22C20.3676 22 24.4759 21.3928 27.5521 20.2904C30.3746 19.2788 32 17.9651 32 16.6861V8C31.1111 8.8364 29.7492 9.58718 28.0069 10.2121C24.7881 11.3655 20.5171 12.001 15.9899 12.001ZM20.77 17.3967C19.181 17.5621 17.5842 17.6442 15.9864 17.6427C13.9862 17.6465 11.9879 17.5162 10.0054 17.2528C9.76945 17.2208 9.5686 17.0666 9.47855 16.8482C9.3885 16.6297 9.42294 16.3803 9.56889 16.1939C9.71483 16.0074 9.95012 15.9123 10.1861 15.9443C12.1086 16.1997 14.0464 16.3259 15.9861 16.3221C17.5367 16.3236 19.0863 16.244 20.6284 16.0836C20.8665 16.0563 21.101 16.1576 21.2427 16.349C21.3844 16.5404 21.4115 16.7924 21.3137 17.0091C21.2159 17.2257 21.0082 17.3737 20.7697 17.3967H20.77ZM23.665 15.6703C23.665 16.7596 24.5566 17.6427 25.6563 17.6427C26.7556 17.6415 27.6464 16.7591 27.6477 15.6703C27.6477 14.581 26.7561 13.698 25.6563 13.698C24.5566 13.698 23.665 14.581 23.665 15.6703Z" fill="#7420D3"/>
<path fill-rule="evenodd" clip-rule="evenodd" d="M15.6353 44.9997C11.3538 44.9997 7.34558 44.3959 4.33693 43.2995C1.57659 42.2936 0 40.9871 0 39.7152V31C0.869364 31.8315 2.18949 32.5785 3.89323 33.1994C7.04054 34.3462 11.2015 34.9779 15.6304 34.9779C17.7091 34.9839 19.7855 34.8365 21.8428 34.5368V38.7533C21.8455 40.6779 22.2393 42.5816 23 44.3471C20.57 44.7903 18.1048 45.0087 15.6353 44.9997ZM9.47966 38.6937C9.34193 38.799 9.25139 38.9551 9.22797 39.1277C9.17915 39.4869 9.42866 39.818 9.78534 39.8673C11.7243 40.1293 13.6786 40.2589 15.635 40.2551C17.1976 40.2566 18.7593 40.175 20.3134 40.0106C20.6715 39.9721 20.9309 39.6486 20.8928 39.288C20.8546 38.9274 20.5334 38.6662 20.1753 38.7046C18.6671 38.8641 17.1515 38.9433 15.635 38.9417C13.7378 38.9456 11.8426 38.8201 9.96237 38.566C9.79102 38.5424 9.61739 38.5883 9.47966 38.6937Z" fill="#B98FE9"/>
<path fill-rule="evenodd" clip-rule="evenodd" d="M32.3537 51L31.3481 50.5356C26.8916 48.4578 24.0082 43.764 24 38.5739V32.8984L32.3761 28L41 32.9036V38.4372C41.0015 43.6895 38.0501 48.43 33.5125 50.4637C33.5113 50.4643 33.5127 50.465 33.5113 50.4657L32.3537 51ZM29.1166 38.1401C28.8921 37.8597 28.4972 37.8265 28.2344 38.066C28.108 38.181 28.0296 38.3449 28.0165 38.5215C28.0034 38.6982 28.0566 38.8732 28.1645 39.008L30.5979 42.048C30.8185 42.3238 31.2051 42.3613 31.4687 42.1324L37.1354 37.2128C37.311 37.0629 37.3978 36.824 37.3628 36.587C37.3277 36.35 37.1762 36.1512 36.9659 36.0664C36.7555 35.9816 36.5187 36.0237 36.3455 36.1767L31.1529 40.6852L29.1166 38.1401Z" fill="#7420D3"/>
</svg>
