<svg width="94" height="66" viewBox="0 0 94 66" fill="none" xmlns="http://www.w3.org/2000/svg">
<path d="M8.61776 23.152C9.26576 22.096 10.1058 21.268 11.1378 20.668C12.1938 20.068 13.3938 19.768 14.7378 19.768V25.06H13.4058C11.8218 25.06 10.6218 25.432 9.80576 26.176C9.01376 26.92 8.61776 28.216 8.61776 30.064V40H3.57776V20.056H8.61776V23.152Z" fill="white"/>
<path d="M36.6724 29.596C36.6724 30.316 36.6244 30.964 36.5284 31.54H21.9484C22.0684 32.98 22.5724 34.108 23.4604 34.924C24.3484 35.74 25.4404 36.148 26.7364 36.148C28.6084 36.148 29.9404 35.344 30.7324 33.736H36.1684C35.5924 35.656 34.4884 37.24 32.8564 38.488C31.2244 39.712 29.2204 40.324 26.8444 40.324C24.9244 40.324 23.1964 39.904 21.6604 39.064C20.1484 38.2 18.9604 36.988 18.0964 35.428C17.2564 33.868 16.8364 32.068 16.8364 30.028C16.8364 27.964 17.2564 26.152 18.0964 24.592C18.9364 23.032 20.1124 21.832 21.6244 20.992C23.1364 20.152 24.8764 19.732 26.8444 19.732C28.7404 19.732 30.4324 20.14 31.9204 20.956C33.4324 21.772 34.5964 22.936 35.4124 24.448C36.2524 25.936 36.6724 27.652 36.6724 29.596ZM31.4524 28.156C31.4284 26.86 30.9604 25.828 30.0484 25.06C29.1364 24.268 28.0204 23.872 26.7004 23.872C25.4524 23.872 24.3964 24.256 23.5324 25.024C22.6924 25.768 22.1764 26.812 21.9844 28.156H31.4524Z" fill="white"/>
<path d="M42.9072 17.68C42.0192 17.68 41.2752 17.404 40.6752 16.852C40.0992 16.276 39.8112 15.568 39.8112 14.728C39.8112 13.888 40.0992 13.192 40.6752 12.64C41.2752 12.064 42.0192 11.776 42.9072 11.776C43.7952 11.776 44.5272 12.064 45.1032 12.64C45.7032 13.192 46.0032 13.888 46.0032 14.728C46.0032 15.568 45.7032 16.276 45.1032 16.852C44.5272 17.404 43.7952 17.68 42.9072 17.68ZM45.3912 20.056V40H40.3512V20.056H45.3912Z" fill="white"/>
<path d="M61.4227 19.768C63.7987 19.768 65.7187 20.524 67.1827 22.036C68.6467 23.524 69.3787 25.612 69.3787 28.3V40H64.3387V28.984C64.3387 27.4 63.9427 26.188 63.1507 25.348C62.3587 24.484 61.2787 24.052 59.9107 24.052C58.5187 24.052 57.4147 24.484 56.5987 25.348C55.8067 26.188 55.4107 27.4 55.4107 28.984V40H50.3707V20.056H55.4107V22.54C56.0827 21.676 56.9347 21.004 57.9667 20.524C59.0227 20.02 60.1747 19.768 61.4227 19.768Z" fill="white"/>
<path d="M92.7115 29.596C92.7115 30.316 92.6635 30.964 92.5675 31.54H77.9875C78.1075 32.98 78.6115 34.108 79.4995 34.924C80.3875 35.74 81.4795 36.148 82.7755 36.148C84.6475 36.148 85.9795 35.344 86.7715 33.736H92.2075C91.6315 35.656 90.5275 37.24 88.8955 38.488C87.2635 39.712 85.2595 40.324 82.8835 40.324C80.9635 40.324 79.2355 39.904 77.6995 39.064C76.1875 38.2 74.9995 36.988 74.1355 35.428C73.2955 33.868 72.8755 32.068 72.8755 30.028C72.8755 27.964 73.2955 26.152 74.1355 24.592C74.9755 23.032 76.1515 21.832 77.6635 20.992C79.1755 20.152 80.9155 19.732 82.8835 19.732C84.7795 19.732 86.4715 20.14 87.9595 20.956C89.4715 21.772 90.6355 22.936 91.4515 24.448C92.2915 25.936 92.7115 27.652 92.7115 29.596ZM87.4915 28.156C87.4675 26.86 86.9995 25.828 86.0875 25.06C85.1755 24.268 84.0595 23.872 82.7395 23.872C81.4915 23.872 80.4355 24.256 79.5715 25.024C78.7315 25.768 78.2155 26.812 78.0235 28.156H87.4915Z" fill="white"/>
<path d="M50.0866 49.48C50.0866 48.36 50.3132 47.38 50.7666 46.54C51.2199 45.6867 51.8399 45.0267 52.6266 44.56C53.4266 44.0933 54.3132 43.86 55.2866 43.86C56.2466 43.86 57.0799 44.0667 57.7866 44.48C58.4932 44.8933 59.0199 45.4133 59.3666 46.04V44.04H61.2066V55H59.3666V52.96C59.0066 53.6 58.4666 54.1333 57.7466 54.56C57.0399 54.9733 56.2132 55.18 55.2666 55.18C54.2932 55.18 53.4132 54.94 52.6266 54.46C51.8399 53.98 51.2199 53.3067 50.7666 52.44C50.3132 51.5733 50.0866 50.5867 50.0866 49.48ZM59.3666 49.5C59.3666 48.6733 59.1999 47.9533 58.8666 47.34C58.5332 46.7267 58.0799 46.26 57.5066 45.94C56.9466 45.6067 56.3266 45.44 55.6466 45.44C54.9666 45.44 54.3466 45.6 53.7866 45.92C53.2266 46.24 52.7799 46.7067 52.4466 47.32C52.1132 47.9333 51.9466 48.6533 51.9466 49.48C51.9466 50.32 52.1132 51.0533 52.4466 51.68C52.7799 52.2933 53.2266 52.7667 53.7866 53.1C54.3466 53.42 54.9666 53.58 55.6466 53.58C56.3266 53.58 56.9466 53.42 57.5066 53.1C58.0799 52.7667 58.5332 52.2933 58.8666 51.68C59.1999 51.0533 59.3666 50.3267 59.3666 49.5Z" fill="#DBC1CD"/>
<path d="M66.1022 46.06C66.4622 45.4333 66.9955 44.9133 67.7022 44.5C68.4222 44.0733 69.2555 43.86 70.2022 43.86C71.1755 43.86 72.0555 44.0933 72.8422 44.56C73.6422 45.0267 74.2689 45.6867 74.7222 46.54C75.1755 47.38 75.4022 48.36 75.4022 49.48C75.4022 50.5867 75.1755 51.5733 74.7222 52.44C74.2689 53.3067 73.6422 53.98 72.8422 54.46C72.0555 54.94 71.1755 55.18 70.2022 55.18C69.2689 55.18 68.4422 54.9733 67.7222 54.56C67.0155 54.1333 66.4755 53.6067 66.1022 52.98V60.2H64.2822V44.04H66.1022V46.06ZM73.5422 49.48C73.5422 48.6533 73.3755 47.9333 73.0422 47.32C72.7089 46.7067 72.2555 46.24 71.6822 45.92C71.1222 45.6 70.5022 45.44 69.8222 45.44C69.1555 45.44 68.5355 45.6067 67.9622 45.94C67.4022 46.26 66.9489 46.7333 66.6022 47.36C66.2689 47.9733 66.1022 48.6867 66.1022 49.5C66.1022 50.3267 66.2689 51.0533 66.6022 51.68C66.9489 52.2933 67.4022 52.7667 67.9622 53.1C68.5355 53.42 69.1555 53.58 69.8222 53.58C70.5022 53.58 71.1222 53.42 71.6822 53.1C72.2555 52.7667 72.7089 52.2933 73.0422 51.68C73.3755 51.0533 73.5422 50.32 73.5422 49.48Z" fill="#DBC1CD"/>
<path d="M79.6178 46.06C79.9778 45.4333 80.5112 44.9133 81.2178 44.5C81.9378 44.0733 82.7712 43.86 83.7178 43.86C84.6912 43.86 85.5712 44.0933 86.3578 44.56C87.1578 45.0267 87.7845 45.6867 88.2378 46.54C88.6912 47.38 88.9178 48.36 88.9178 49.48C88.9178 50.5867 88.6912 51.5733 88.2378 52.44C87.7845 53.3067 87.1578 53.98 86.3578 54.46C85.5712 54.94 84.6912 55.18 83.7178 55.18C82.7845 55.18 81.9578 54.9733 81.2378 54.56C80.5312 54.1333 79.9912 53.6067 79.6178 52.98V60.2H77.7978V44.04H79.6178V46.06ZM87.0578 49.48C87.0578 48.6533 86.8912 47.9333 86.5578 47.32C86.2245 46.7067 85.7712 46.24 85.1978 45.92C84.6378 45.6 84.0178 45.44 83.3378 45.44C82.6712 45.44 82.0512 45.6067 81.4778 45.94C80.9178 46.26 80.4645 46.7333 80.1178 47.36C79.7845 47.9733 79.6178 48.6867 79.6178 49.5C79.6178 50.3267 79.7845 51.0533 80.1178 51.68C80.4645 52.2933 80.9178 52.7667 81.4778 53.1C82.0512 53.42 82.6712 53.58 83.3378 53.58C84.0178 53.58 84.6378 53.42 85.1978 53.1C85.7712 52.7667 86.2245 52.2933 86.5578 51.68C86.8912 51.0533 87.0578 50.32 87.0578 49.48Z" fill="#DBC1CD"/>
</svg>
